<svg width="114" height="113" viewBox="0 0 114 113" fill="none" xmlns="http://www.w3.org/2000/svg">
<g opacity="0.2">
<path d="M75.833 37.6665H38.1663C36.9176 37.6665 35.72 37.1704 34.837 36.2875C33.9541 35.4045 33.458 34.2069 33.458 32.9582V18.8332C33.458 16.3357 34.4501 13.9405 36.2161 12.1746C37.9821 10.4086 40.3772 9.4165 42.8747 9.4165H71.1247C73.6221 9.4165 76.0173 10.4086 77.7833 12.1746C79.5492 13.9405 80.5413 16.3357 80.5413 18.8332V32.9582C80.5413 34.2069 80.0453 35.4045 79.1623 36.2875C78.2793 37.1704 77.0817 37.6665 75.833 37.6665ZM42.8747 28.2498H71.1247V18.8332H42.8747V28.2498Z" fill="#704A9A"/>
<path d="M94.6665 28.25H19.3332C14.1325 28.25 9.9165 32.466 9.9165 37.6667V94.1667C9.9165 99.3673 14.1325 103.583 19.3332 103.583H94.6665C99.8672 103.583 104.083 99.3673 104.083 94.1667V37.6667C104.083 32.466 99.8672 28.25 94.6665 28.25Z" fill="#704A9A"/>
<path d="M71.125 65.9168C69.8763 65.9168 68.6787 65.4208 67.7957 64.5378C66.9127 63.6548 66.4167 62.4572 66.4167 61.2085V56.5002H33.4583C32.2096 56.5002 31.012 56.0041 30.129 55.1211C29.2461 54.2381 28.75 53.0406 28.75 51.7918C28.75 50.5431 29.2461 49.3455 30.129 48.4625C31.012 47.5796 32.2096 47.0835 33.4583 47.0835H80.5417C81.7904 47.0835 82.988 47.5796 83.871 48.4625C84.754 49.3455 85.25 50.5431 85.25 51.7918C85.25 53.0406 84.754 54.2381 83.871 55.1211C82.988 56.0041 81.7904 56.5002 80.5417 56.5002H75.8333V61.2085C75.8333 62.4572 75.3373 63.6548 74.4543 64.5378C73.5713 65.4208 72.3737 65.9168 71.125 65.9168Z" fill="white"/>
</g>
</svg>
