<svg width="114" height="114" viewBox="0 0 114 114" fill="none" xmlns="http://www.w3.org/2000/svg">
<g opacity="0.2">
<path d="M36.8125 11.875C36.8125 9.9075 35.2175 8.3125 33.25 8.3125C31.2825 8.3125 29.6875 9.9075 29.6875 11.875V19.3765C22.8507 19.9239 18.3624 21.2675 15.0649 24.565C11.7675 27.8624 10.4239 32.3507 9.87646 39.1875H104.123C103.576 32.3507 102.232 27.8624 98.9349 24.565C95.6374 21.2675 91.1492 19.9239 84.3125 19.3765V11.875C84.3125 9.9075 82.7174 8.3125 80.75 8.3125C78.7825 8.3125 77.1875 9.9075 77.1875 11.875V19.0613C74.0273 19 70.4852 19 66.5 19H47.5C43.5146 19 39.9725 19 36.8125 19.0613V11.875Z" fill="#704A9A"/>
<path fill-rule="evenodd" clip-rule="evenodd" d="M9.5 57C9.5 53.0148 9.5 49.4727 9.56128 46.3125H104.439C104.5 49.4727 104.5 53.0148 104.5 57V66.5C104.5 84.4132 104.5 93.3703 98.9349 98.9349C93.3703 104.5 84.4132 104.5 66.5 104.5H47.5C29.5866 104.5 20.63 104.5 15.065 98.9349C9.5 93.3703 9.5 84.4132 9.5 66.5V57ZM80.75 66.5C83.3734 66.5 85.5 64.3734 85.5 61.75C85.5 59.1266 83.3734 57 80.75 57C78.1266 57 76 59.1266 76 61.75C76 64.3734 78.1266 66.5 80.75 66.5ZM80.75 85.5C83.3734 85.5 85.5 83.3734 85.5 80.75C85.5 78.1266 83.3734 76 80.75 76C78.1266 76 76 78.1266 76 80.75C76 83.3734 78.1266 85.5 80.75 85.5ZM61.75 61.75C61.75 64.3734 59.6234 66.5 57 66.5C54.3766 66.5 52.25 64.3734 52.25 61.75C52.25 59.1266 54.3766 57 57 57C59.6234 57 61.75 59.1266 61.75 61.75ZM61.75 80.75C61.75 83.3734 59.6234 85.5 57 85.5C54.3766 85.5 52.25 83.3734 52.25 80.75C52.25 78.1266 54.3766 76 57 76C59.6234 76 61.75 78.1266 61.75 80.75ZM33.25 66.5C35.8733 66.5 38 64.3734 38 61.75C38 59.1266 35.8733 57 33.25 57C30.6267 57 28.5 59.1266 28.5 61.75C28.5 64.3734 30.6267 66.5 33.25 66.5ZM33.25 85.5C35.8733 85.5 38 83.3734 38 80.75C38 78.1266 35.8733 76 33.25 76C30.6267 76 28.5 78.1266 28.5 80.75C28.5 83.3734 30.6267 85.5 33.25 85.5Z" fill="#704A9A"/>
</g>
</svg>
