<svg width="104" height="102" viewBox="0 0 104 102" fill="none" xmlns="http://www.w3.org/2000/svg">
<g opacity="0.2">
<path d="M68.6482 53.1974C68.6482 50.7682 66.7544 49.625 63.1847 49.625H59.6152V57.1269H63.1847C66.6814 57.1268 68.6482 55.8406 68.6482 53.1974Z" fill="#704A9A"/>
<path d="M40.091 57.1623C43.8426 57.1623 46.2464 53.8044 46.2464 48.5532C46.2464 43.3374 43.8426 40.1582 40.091 40.1582C36.3394 40.1582 33.9355 43.3375 33.9355 48.5532C33.9355 53.8044 36.3395 57.1623 40.091 57.1623Z" fill="#704A9A"/>
<path d="M67.3735 43.2309C67.3735 41.0873 65.8074 40.1943 62.7112 40.1943H59.6152V46.6602H62.6384C65.9529 46.6602 67.3735 45.4099 67.3735 43.2309Z" fill="#704A9A"/>
<path d="M3.72314 19.5391V95.7436C3.72314 99.1989 6.57917 102 10.1022 102H67.0207V76.8089C67.0207 72.7084 70.4099 69.3845 74.5908 69.3845H100.276V19.5391C100.276 16.0838 97.4196 13.2827 93.8966 13.2827H80.0485C78.1158 16.1245 74.8181 18.0006 71.0813 18.0006C69.2905 18.0006 67.601 17.5692 66.1134 16.8077L55.7313 23.5709C55.0094 24.0411 54.151 23.199 54.6305 22.4911L60.8665 13.2828H10.1022C6.57906 13.2827 3.72314 16.0838 3.72314 19.5391ZM84.0553 50.7325L80.7772 49.3395C78.4461 48.3749 75.9692 46.5529 75.9692 43.1236C75.9692 39.4085 79.3202 36.5506 83.9823 36.5506C86.7504 36.5506 89.446 37.6938 91.3033 39.5157L89.1544 42.1592C87.6244 40.909 86.0219 40.1587 83.9824 40.1587C81.7242 40.1587 80.2309 41.1947 80.2309 42.9093C80.2309 44.7313 82.052 45.4098 84.0189 46.1958L87.2605 47.5176C90.0652 48.6966 92.0685 50.447 92.0685 53.8408C92.0685 57.6273 88.8633 60.7711 83.509 60.7711C80.3037 60.7711 77.1712 59.5208 74.9127 57.3414L77.3895 54.5194C79.1017 56.0912 81.3964 57.163 83.5815 57.163C86.2771 57.163 87.7339 55.9842 87.7339 54.1625C87.7341 52.233 86.2042 51.6257 84.0553 50.7325ZM55.3896 36.979H63.0024C67.9196 36.979 71.5255 38.4437 71.5255 42.7304C71.5255 44.9453 70.2143 47.0887 67.4461 47.8031V47.946C70.87 48.5174 72.7639 50.3394 72.7639 53.483C72.7639 58.1627 68.8666 60.3418 63.6216 60.3418H55.3898L55.3896 36.979ZM40.0914 36.5504C46.3198 36.5504 50.6179 41.0157 50.6179 48.5534C50.6179 56.1266 46.3198 60.7708 40.0914 60.7708C33.8994 60.7708 29.6014 56.1267 29.6014 48.5534C29.6014 41.0157 33.8995 36.5504 40.0914 36.5504ZM13.6117 54.6977C14.5587 56.4125 15.8699 57.1627 17.3268 57.1627C19.5486 57.1627 20.6778 55.9838 20.6778 52.6616V36.979H24.9029V53.0187C24.9029 57.2699 22.7903 60.7708 17.8003 60.7708C14.4857 60.7708 12.1911 59.4131 10.6976 56.8055L13.6117 54.6977Z" fill="#704A9A"/>
<path d="M74.5909 73.6807C72.8295 73.6807 71.4014 75.0813 71.4014 76.8089V99.9815V102L100.277 73.6807H98.6441H74.5909Z" fill="#704A9A"/>
<path d="M66.3988 13.2827C67.2606 13.9475 68.2724 14.4325 69.3771 14.6814C69.925 14.8049 70.495 14.8723 71.0809 14.8723C72.8487 14.8723 74.4736 14.2773 75.763 13.2827C77.5282 11.9212 78.6629 9.80933 78.6629 7.43617C78.663 3.32925 75.2683 0 71.0809 0C66.8935 0 63.499 3.32925 63.499 7.43617C63.499 8.01113 63.5677 8.56993 63.6937 9.10736C64.0874 10.7885 65.0614 12.2511 66.3988 13.2827Z" fill="#704A9A"/>
</g>
</svg>
