<svg width="112" height="112" viewBox="0 0 112 112" fill="none" xmlns="http://www.w3.org/2000/svg">
<g opacity="0.2">
<path d="M94.1562 14.6621H17.8438C11.9469 14.6621 7.4375 19.1715 7.4375 25.0684V87.5059C7.4375 93.4027 11.9469 97.9121 17.8438 97.9121H94.1562C100.053 97.9121 104.562 93.4027 104.562 87.5059V25.0684C104.562 19.1715 100.053 14.6621 94.1562 14.6621ZM32.0656 27.1496C32.4125 26.8027 32.4125 26.4559 32.7594 26.109C33.1063 25.7621 33.4531 25.4152 33.8 25.4152C35.1875 24.7215 36.575 25.0684 37.6156 26.109C37.9625 26.4559 38.3094 26.8027 38.3094 27.1496C38.6562 27.4965 38.6562 28.1902 38.6562 28.5371C38.6562 29.5777 38.3094 30.2715 37.6156 30.9652C36.9219 31.659 36.2281 32.0059 35.1875 32.0059C34.1469 32.0059 33.4531 31.659 32.7594 30.9652C32.0656 30.2715 31.7188 29.5777 31.7188 28.5371C31.7188 28.1902 31.7188 27.4965 32.0656 27.1496ZM21.3125 28.5371C21.3125 27.4965 21.6594 26.8027 22.3531 26.109L22.7 25.7621C23.0469 25.7621 23.0469 25.4152 23.3937 25.4152C23.7406 25.0684 23.7406 25.0684 24.0875 25.0684C24.4344 25.0684 25.1281 25.0684 25.475 25.0684C25.8219 25.0684 25.8219 25.0684 26.1688 25.4152C26.5156 25.4152 26.5156 25.7621 26.8625 25.7621L27.2094 26.109C27.5562 26.4559 27.9031 26.8027 27.9031 27.1496C28.25 27.4965 28.25 28.1902 28.25 28.5371C28.25 28.884 28.25 29.5777 27.9031 29.9246C27.9031 30.2715 27.5562 30.6184 27.2094 30.9652C26.5156 31.659 25.8219 32.0059 24.7812 32.0059C23.7406 32.0059 23.0469 31.659 22.3531 30.9652C21.6594 30.2715 21.3125 29.5777 21.3125 28.5371ZM43.1656 30.9652C42.8188 30.6184 42.4719 30.2715 42.4719 29.9246C42.125 29.5777 42.125 28.884 42.125 28.5371C42.125 28.1902 42.125 27.4965 42.4719 27.1496C42.8188 26.8027 42.8188 26.4559 43.1656 26.109C44.5531 24.7215 46.6344 24.7215 48.0219 26.109C48.3687 26.4559 48.7156 26.8027 48.7156 27.1496C49.0625 27.4965 49.0625 28.1902 49.0625 28.5371C49.0625 28.884 49.0625 29.5777 48.7156 29.9246C48.3687 30.2715 48.3687 30.6184 48.0219 30.9652C47.3281 31.659 46.6344 32.0059 45.5938 32.0059C45.2469 32.0059 44.5531 32.0059 44.2063 31.659C43.8594 31.659 43.5125 31.3121 43.1656 30.9652Z" fill="#704A9A"/>
</g>
</svg>
