<svg width="132" height="131" viewBox="0 0 132 131" fill="none" xmlns="http://www.w3.org/2000/svg">
<g opacity="0.2">
<mask id="mask0_313_556" style="mask-type:luminance" maskUnits="userSpaceOnUse" x="2" y="0" width="129" height="129">
<path d="M130.392 0.601562H2.06543V128.602H130.392V0.601562Z" fill="white"/>
</mask>
<g mask="url(#mask0_313_556)">
<path d="M61.47 123.268C60.85 123.268 60.2349 123.159 59.6521 122.948C58.5279 122.538 57.5745 121.763 56.9444 120.748C56.314 119.732 56.0437 118.535 56.1765 117.348L60.2937 79.5351H28.8002C27.8289 79.5367 26.8755 79.274 26.0424 78.7759C25.2094 78.2775 24.5281 77.5623 24.0718 76.7068C23.6156 75.8516 23.4015 74.8884 23.4527 73.9207C23.5039 72.9532 23.8184 72.0177 24.3624 71.2151L66.5496 8.28176C67.2169 7.2969 68.1949 6.56258 69.3281 6.19541C70.4617 5.82824 71.6856 5.84922 72.8055 6.25509C73.8824 6.65381 74.8018 7.38781 75.4277 8.34837C76.0538 9.30893 76.353 10.445 76.281 11.5884L72.1639 49.6684H103.657C104.629 49.6671 105.582 49.9295 106.415 50.4279C107.248 50.926 107.93 51.6412 108.386 52.4967C108.842 53.3521 109.056 54.3153 109.005 55.2828C108.954 56.2503 108.639 57.1857 108.095 57.9884L65.908 120.922C65.4177 121.645 64.7565 122.238 63.9825 122.647C63.2088 123.056 62.3458 123.27 61.47 123.268Z" fill="#704A9A"/>
</g>
</g>
</svg>
