<svg width="96" height="91" viewBox="0 0 96 91" fill="none" xmlns="http://www.w3.org/2000/svg">
<g opacity="0.2">
<path d="M42.741 80.6289L33.5249 85.4538C25.2303 89.7908 15.5263 82.7974 17.0984 73.527L18.8332 63.2808C19.4838 59.5944 18.2369 55.8537 15.5805 53.2515L8.15335 46.0412C1.43098 39.4815 5.17166 28.0968 14.442 26.7415L24.7424 25.2235C28.4289 24.6814 31.6274 22.3503 33.2538 19.0433L37.8619 9.71872C42.0363 1.31576 53.963 1.31576 58.1374 9.71872L62.7455 19.0433C64.3719 22.4045 67.5704 24.6814 71.2569 25.2235L81.5573 26.7415C90.8276 28.0968 94.5141 39.4815 87.8459 46.0412L80.3646 53.3057C77.7082 55.9079 76.4613 59.6486 77.1118 63.335L78.8466 73.5812C80.4188 82.7974 70.7147 89.845 62.4202 85.508L53.2041 80.6831C49.9513 78.8941 46.048 78.8941 42.741 80.6289Z" fill="#704A9A"/>
</g>
</svg>
