<svg width="116" height="115" viewBox="0 0 116 115" fill="none" xmlns="http://www.w3.org/2000/svg">
<g opacity="0.2">
<path d="M105.918 57.9843C105.917 67.4615 103.106 76.7255 97.8398 84.6049C92.5737 92.4842 85.0894 98.6252 76.3333 102.251C67.5772 105.877 57.9425 106.825 48.6476 104.975C39.3527 103.126 30.8149 98.5615 24.114 91.8597C17.4131 85.158 12.8498 76.6197 11.0014 67.3245C9.15292 58.0294 10.1022 48.3948 13.7292 39.6392C17.3563 30.8835 23.4981 23.4 31.3782 18.1349C39.2583 12.8698 48.5226 10.0596 57.9998 10.0596C70.7075 10.0596 82.8949 15.1073 91.8812 24.0925C100.868 33.0777 105.917 45.2644 105.918 57.9722V57.9843ZM88.1842 62.324L60.9111 35.063C58.654 33.036 55.7645 31.8533 52.734 31.7159L36.7853 31.8733C35.5073 31.895 34.2877 32.4119 33.3833 33.3152C32.4789 34.2184 31.9605 35.4374 31.9371 36.7154L31.7495 52.7185C31.879 55.7492 33.0555 58.6412 35.0784 60.9017L62.3456 88.1627C63.2461 89.0587 64.4647 89.5616 65.735 89.5616C67.0053 89.5616 68.224 89.0587 69.1245 88.1627L88.1782 69.0969C89.0723 68.1967 89.5741 66.9793 89.5741 65.7105C89.5741 64.4417 89.0723 63.2243 88.1782 62.324H88.1842ZM41.1977 37.829C40.5345 37.829 39.8862 38.0257 39.3347 38.3942C38.7833 38.7626 38.3535 39.2863 38.0997 39.899C37.8459 40.5117 37.7795 41.1859 37.9089 41.8364C38.0383 42.4868 38.3577 43.0843 38.8266 43.5532C39.2956 44.0222 39.893 44.3415 40.5435 44.4709C41.1939 44.6003 41.8681 44.5339 42.4809 44.2801C43.0936 44.0263 43.6173 43.5965 43.9857 43.0451C44.3542 42.4937 44.5508 41.8454 44.5508 41.1822C44.5508 40.2929 44.1975 39.44 43.5687 38.8112C42.9399 38.1823 42.087 37.829 41.1977 37.829ZM73.3129 73.2793C72.8634 73.7288 72.2538 73.9812 71.6182 73.9812C70.9825 73.9812 70.3729 73.7288 69.9235 73.2793L68.4345 71.7904C67.8092 72.2028 67.1441 72.5516 66.4492 72.8314C65.5585 73.205 64.6007 73.3925 63.6348 73.3822C63.429 73.3822 63.2232 73.3822 63.0113 73.3641C62.3773 73.3183 61.7873 73.0225 61.3713 72.5418C60.9553 72.0611 60.7473 71.4348 60.7931 70.8008C60.8388 70.1667 61.1346 69.5768 61.6153 69.1607C62.096 68.7447 62.7223 68.5367 63.3563 68.5825C63.7642 68.6281 64.177 68.5763 64.5608 68.4312C64.9797 68.2655 65.3812 68.0587 65.7592 67.8138C66.1436 67.5526 66.5096 67.2655 66.8548 66.9543C67.6434 66.1716 68.2023 65.1877 68.4708 64.1096C68.725 62.9051 68.3195 62.4996 68.1258 62.3059C67.8224 62.0096 67.4232 61.8315 67 61.8035C66.5491 61.7753 66.0967 61.8244 65.6624 61.9488C65.223 62.0893 64.8038 62.2867 64.4156 62.5359C64.0568 62.7702 63.724 63.042 63.4229 63.3469C62.9238 63.8514 62.3832 64.313 61.8069 64.7269C61.0248 65.2867 60.164 65.7273 59.2527 66.0343C58.1893 66.3885 57.0628 66.5122 55.9479 66.3975C54.4229 66.255 52.9932 65.5926 51.8987 64.5212C51.0912 63.6825 50.5138 62.6497 50.2222 61.5226C49.9306 60.3955 49.9348 59.2122 50.2342 58.0872C50.4988 56.9662 50.9511 55.898 51.5719 54.9277L50.1192 53.4751C49.8806 53.2567 49.6886 52.9922 49.5548 52.6977C49.4211 52.4031 49.3484 52.0845 49.341 51.761C49.3337 51.4376 49.392 51.116 49.5123 50.8157C49.6325 50.5154 49.8124 50.2425 50.0409 50.0135C50.2695 49.7845 50.542 49.6042 50.8422 49.4834C51.1423 49.3626 51.4637 49.3038 51.7872 49.3105C52.1106 49.3172 52.4294 49.3894 52.7242 49.5226C53.019 49.6558 53.2838 49.8473 53.5027 50.0856L55.0098 51.5867C55.6668 51.1823 56.3622 50.8437 57.0858 50.5759C58.024 50.2205 59.0182 50.036 60.0213 50.0312C60.657 50.0303 61.267 50.2821 61.7171 50.731C62.1671 51.18 62.4204 51.7893 62.4212 52.425C62.422 53.0606 62.1703 53.6706 61.7213 54.1207C61.2724 54.5707 60.6631 54.824 60.0274 54.8248C59.6011 54.8291 59.1789 54.909 58.7806 55.0609C58.3415 55.2196 57.9197 55.4224 57.5216 55.6661L57.4006 55.7388C57.0851 55.928 56.7855 56.1426 56.5048 56.3804C55.7364 57.1445 55.1849 58.0991 54.9069 59.1464C54.7906 59.4817 54.7646 59.8416 54.8316 60.1901C54.8985 60.5386 55.056 60.8633 55.2882 61.1317C55.6074 61.4176 56.0111 61.5918 56.4382 61.628C56.8769 61.6719 57.32 61.6245 57.7395 61.4888C58.1944 61.3307 58.6244 61.1085 59.0166 60.829C59.3793 60.5674 59.7194 60.2759 60.0335 59.9575C60.5773 59.411 61.1779 58.924 61.825 58.5048C62.5768 58.0231 63.3888 57.6425 64.24 57.373C65.24 57.0738 66.2852 56.955 67.3269 57.0219C68.9069 57.1282 70.3948 57.8034 71.5153 58.9225C72.3061 59.7197 72.8735 60.7109 73.1603 61.7966C73.4471 62.8824 73.4434 64.0244 73.1495 65.1083C72.8912 66.2673 72.4346 67.3731 71.7998 68.3767L73.3129 69.8959C73.5362 70.118 73.7134 70.3821 73.8342 70.673C73.9551 70.9638 74.0174 71.2757 74.0174 71.5906C74.0174 71.9056 73.9551 72.2174 73.8342 72.5083C73.7134 72.7991 73.5362 73.0572 73.3129 73.2793Z" fill="#704A9A"/>
</g>
</svg>
