<svg width="106" height="106" viewBox="0 0 106 106" fill="none" xmlns="http://www.w3.org/2000/svg">
<g opacity="0.2">
<path d="M71.506 8.8335H34.4943C18.4177 8.8335 8.8335 18.4177 8.8335 34.4943V71.4618C8.8335 87.5827 18.4177 97.1668 34.4943 97.1668H71.4618C87.5385 97.1668 97.1227 87.5827 97.1227 71.506V34.4943C97.1668 18.4177 87.5827 8.8335 71.506 8.8335ZM76.2318 43.9902L66.0293 57.1518C64.7485 58.786 62.9377 59.846 60.8618 60.0668C58.786 60.3318 56.7543 59.7577 55.1202 58.4768L47.0377 52.1168C46.7285 51.8518 46.3752 51.8518 46.1985 51.896C46.0218 51.896 45.7127 51.9843 45.4477 52.3377L34.936 65.9852C34.2735 66.8243 33.3018 67.266 32.3302 67.266C31.6235 67.266 30.9168 67.0452 30.2985 66.5593C28.841 65.4552 28.576 63.3793 29.6802 61.9218L40.1918 48.2743C41.4727 46.6402 43.2835 45.5802 45.3593 45.3152C47.391 45.0502 49.4668 45.6243 51.101 46.9052L59.1835 53.2652C59.4927 53.5302 59.8018 53.5302 60.0227 53.486C60.1993 53.486 60.5085 53.3977 60.7735 53.0443L70.976 39.8827C72.0802 38.4252 74.2002 38.1602 75.6135 39.3085C77.071 40.501 77.336 42.5768 76.2318 43.9902Z" fill="#704A9A"/>
</g>
</svg>
