<svg width="94" height="92" viewBox="0 0 94 92" fill="none" xmlns="http://www.w3.org/2000/svg">
<path opacity="0.2" d="M0.488715 54.9408C11.0603 69.6852 25.4595 81.6268 41.1953 90.5831C44.5976 92.4109 49.3973 92.5327 52.7997 90.5831C68.5355 81.6268 82.9347 69.7461 93.5062 54.9408C94.4783 53.5395 93.9315 51.1634 92.5949 51.2243C90.2254 51.3461 84.6358 51.468 82.2664 51.5899C81.2335 51.6508 80.4437 50.615 80.4437 49.3356C80.4437 34.5303 79.7146 20.1516 77.7097 5.52912C77.1021 2.60463 74.2466 0.411257 71.2088 0.411257C52.9819 -0.137086 41.0738 -0.137086 22.8469 0.411257C19.8091 0.594037 17.0144 2.42185 16.4068 5.52912C14.3411 20.2125 13.612 34.5913 13.6728 49.3965C13.6728 50.676 12.8222 51.7117 11.8501 51.6508C9.48061 51.5289 3.89105 51.468 1.52157 51.2852C0.0634222 51.1634 -0.483382 53.5395 0.488715 54.9408Z" fill="#704A9A"/>
</svg>
